#!OML:ASF E:\emotionWalksFemale\Project 1\Capture day 1\Session 1\Female1.ASF
:FULLY-SPECIFIED
:DEGREES
414
root 9.58054 15.1661 21.0762 7.2113 -72.5432 -363.75
lowerback 10.0545 -0.132128 4.45117
upperback -4.24468 0.521628 0.886112
thorax -10.2023 -0.0182807 -1.64982
lowerneck -4.77532 -6.60207 -8.64111
upperneck 9.30626 -8.86324 6.47498
head 4.23574 -4.3927 2.88343
rclavicle -5.90763e-015 7.95139e-015
rhumerus -38.5062 5.62051 -77.4003
rradius 40.1046
rwrist 25.1799
rhand -11.533 -54.2017
rfingers 7.12502
rthumb -165.493 -623.675
lclavicle -5.90763e-015 7.95139e-015
lhumerus -47.7428 3.751 81.4663
lradius 31.6737
lwrist -23.6311
lhand 7.95777 -36.5281
lfingers 7.12502
lthumb 33.1869 -9.56756
rfemur -12.3663 5.33987 28.3245
rtibia 34.4112
rfoot -20.4507 -17.8312
rtoes -10.4717
lfemur -19.2592 -13.5152 -21.8654
ltibia 43.6097
lfoot -27.7731 1.26122
ltoes -35.1737
415
root 9.57522 15.2129 21.0907 6.98286 -73.2634 -363.447
lowerback 9.83417 0.088468 4.23598
upperback -4.33212 0.762624 0.723745
thorax -10.1515 0.10541 -1.7464
lowerneck -4.83417 -6.6561 -8.69094
upperneck 9.65791 -8.97454 6.69103
head 4.37304 -4.44027 2.94314
rclavicle 1.49089e-016 1.98785e-015
rhumerus -38.2285 6.18101 -78.4226
rradius 40.544
rwrist 24.4851
rhand -11.0572 -54.3439
rfingers 7.12502
rthumb -165.035 -623.783
lclavicle 1.49089e-016 1.98785e-015
lhumerus -48.737 3.32965 81.5397
lradius 32.0002
lwrist -23.5942
lhand 8.2924 -36.1551
lfingers 7.12502
lthumb 33.505 -9.26279
rfemur -11.9452 6.14337 28.1536
rtibia 33.5033
rfoot -19.8755 -17.993
rtoes -8.56027
lfemur -18.499 -13.863 -21.9171
ltibia 42.0759
lfoot -27.4743 1.78986
ltoes -37.9941
416
root 9.57862 15.2471 21.1039 6.49582 -74.0054 -362.873
lowerback 9.72057 0.28835 3.90989
upperback -4.40561 0.967474 0.568313
thorax -10.1524 0.218749 -1.76642
lowerneck -4.88208 -6.6915 -8.65242
upperneck 9.84839 -9.04778 6.79943
head 4.4479 -4.47007 2.9611
rclavicle 1.0051e-014 7.95139e-016
rhumerus -37.939 6.61538 -79.3308
rradius 40.998
rwrist 24.0641
rhand -10.5745 -54.5766
rfingers 7.12502
rthumb -164.57 -623.981
lclavicle 1.0051e-014 7.95139e-016
lhumerus -49.7296 3.159 81.4967
lradius 32.3217
lwrist -23.4375
lhand 8.39924 -35.9859
lfingers 7.12502
lthumb 33.6065 -9.11564
rfemur -11.593 6.29835 27.9819
rtibia 32.6318
rfoot -18.9443 -18.3863
rtoes -9.85573
lfemur -17.7871 -14.1227 -22.0628
ltibia 40.5547
lfoot -26.9949 1.72077
ltoes -38.2151
417
root 9.58245 15.2765 21.1178 6.69041 -74.7488 -362.981
lowerback 9.58241 0.47541 3.74949
upperback -4.45652 1.18081 0.459598
thorax -10.1133 0.328018 -1.82971
lowerneck -5.05693 -6.71492 -8.65465
upperneck 10.0494 -9.10064 6.98782
head 4.55125 -4.48405 3.00712
rclavicle 3.10415e-014 1.55052e-014
rhumerus -37.4994 6.71061 -80.1194
rradius 41.1075
rwrist 23.7522
rhand -10.317 -54.3724
rfingers 7.12502
rthumb -164.322 -623.757
lclavicle 3.10415e-014 1.55052e-014
lhumerus -50.6734 2.71103 81.6223
lradius 32.6317
lwrist -22.6943
lhand 8.29565 -35.802
lfingers 7.12502
lthumb 33.5081 -8.91039
rfemur -11.3116 6.17062 28.0879
rtibia 31.8276
rfoot -17.7813 -19.0765
rtoes -13.9709
lfemur -17.1072 -14.3413 -21.9976
ltibia 39.0486
lfoot -26.4341 1.39023
ltoes -36.4959
418
root 9.58284 15.3086 21.1299 6.87668 -75.5777 -363.113
lowerback 9.48606 0.695772 3.44317
upperback -4.50844 1.42657 0.409429
thorax -10.1028 0.464369 -1.75382
lowerneck -5.24683 -6.75592 -8.7067
upperneck 10.2212 -9.1666 7.14715
head 4.65057 -4.50664 3.05089
rclavicle 7.88305e-015 6.36111e-015
rhumerus -37.1156 6.67811 -80.7699
rradius 41.0516
rwrist 23.46
rhand -10.1738 -53.8811
rfingers 7.12502
rthumb -164.184 -623.255
lclavicle 7.88305e-015 6.36111e-015
lhumerus -51.5656 2.46671 81.8026
lradius 32.9401
lwrist -21.6047
lhand 7.80153 -34.8536
lfingers 7.12502
lthumb 33.0383 -7.86151
rfemur -11.0137 6.40744 28.186
rtibia 31.0886
rfoot -17.0678 -19.6113
rtoes -15.9834
lfemur -16.2615 -14.3696 -21.9873
ltibia 37.515
lfoot -25.9686 1.64594
ltoes -36.3029
